name Run_200 02_newCOP3_v24.mot
datacolumns 19
datarows 51
range 1.415 1.465
DataType=double
version=3
OpenSimVersion=4.3-2021-08-27-4bc7ad9
endheader
time	R_ground_force_vx	R_ground_force_vy	R_ground_force_vz	R_ground_force_px	R_ground_force_py	R_ground_force_pz	L_ground_force_vx	L_ground_force_vy	L_ground_force_vz	L_ground_force_px	L_ground_force_py	L_ground_force_pz	R_ground_torque_x	R_ground_torque_y	R_ground_torque_z	L_ground_torque_x	L_ground_torque_y	L_ground_torque_z
1.415	-1.179785	3.550107	-0.711324	0	0	0	106.234947	449.096863	27.594622	0.575968	0	-0.558555	0	0	0	-0	0.569844	-0
1.416	-1.300734	3.509605	-0.679698	0	0	0	104.369637	437.354309	26.767321	0.5748760000000001	0	-0.558654	0	0	0	-0	0.614332	-0
1.417	-1.441268	3.470962	-0.640344	0	0	0	102.471542	425.788544	25.947897	0.573827	0	-0.558758	0	0	0	-0	0.658455	-0
1.418	-1.598176	3.433761	-0.594044	0	0	0	100.544937	414.401825	25.135246	0.572816	0	-0.558867	0	0	0	-0	0.702187	-0
1.419	-1.767646	3.39743	-0.541747	0	0	0	98.594055	403.196014	24.328234	0.571837	0	-0.558981	0	0	0	-0	0.745499	-0
1.42	-1.945386	3.361283	-0.484546	0	0	0	96.623085	392.172638	23.525732	0.570885	0	-0.5591	0	0	0	-0	0.788357	-0
1.421	-2.126791	3.324577	-0.42364	0	0	0	94.636177	381.332977	22.726662	0.569952	0	-0.559225	0	0	0	-0	0.830728	-0
1.422	-2.307112	3.286584	-0.360304	0	0	0	92.63743599999999	370.677979	21.930029	0.56903	0	-0.559356	0	0	0	-0	0.872572	-0
1.423	-2.481649	3.246669	-0.29585	0	0	0	90.630928	360.208435	21.134958	0.568111	0	-0.559492	0	0	0	-0	0.913848	-0
1.424	-2.645941	3.204364	-0.231589	0	0	0	88.62067399999999	349.924957	20.340723	0.5671850000000001	0	-0.559634	0	0	0	-0	0.9545129999999999	-0
1.425	-2.795936	3.159427	-0.168799	0	0	0	86.61067199999999	339.828064	19.546782	0.566244	0	-0.559781	0	0	0	-0	0.994518	-0
1.426	-2.928151	3.111889	-0.108685	0	0	0	84.60485799999999	329.918213	18.752794	0.565279	0	-0.559934	0	0	0	-0	1.033813	-0
1.427	-3.039789	3.062071	-0.052352	0	0	0	82.607094	320.195801	17.958651	0.564282	0	-0.560093	0	0	0	-0	1.072347	-0
1.428	-3.128833	3.010576	-0.000773	0	0	0	80.621117	310.661224	17.164474	0.563244	0	-0.560258	0	0	0	-0	1.110061	-0
1.429	-3.194081	2.95826	0.045235	0	0	0	78.65049	301.314972	16.370634	0.562159	0	-0.560428	0	0	0	-0	1.146899	-0
1.43	-3.23516	2.90616	0.085032	0	0	0	76.698578	292.157501	15.577744	0.56102	0	-0.560603	0	0	0	-0	1.1828	-0
1.431	-3.252484	2.855426	0.11817	0	0	0	74.76844800000001	283.189209	14.786655	0.559823	0	-0.560785	0	0	0	-0	1.2177	-0
1.432	-3.247194	2.80722	0.1444	0	0	0	72.86288500000001	274.410614	13.998446	0.558565	0	-0.560972	0	0	0	-0	1.251534	-0
1.433	-3.22106	2.762628	0.163682	0	0	0	70.984268	265.822083	13.2144	0.557244	0	-0.561164	0	0	0	-0	1.284237	-0
1.434	-3.176372	2.722568	0.176175	0	0	0	69.13464399999999	257.42395	12.435985	0.555859	0	-0.5613629999999999	0	0	0	-0	1.31574	-0
1.435	-3.115824	2.687722	0.182237	0	0	0	67.315636	249.21637	11.66482	0.554414	0	-0.561566	0	0	0	-0	1.345974	-0
1.436	-3.042391	2.658486	0.18241	0	0	0	65.528526	241.199387	10.902645	0.552912	0	-0.561775	0	0	0	-0	1.37487	-0
1.437	-2.959218	2.634952	0.177398	0	0	0	63.77425	233.372849	10.15128	0.551359	0	-0.561988	0	0	0	-0	1.402356	-0
1.438	-2.869514	2.616917	0.168052	0	0	0	62.053432	225.736359	9.412591000000001	0.549762	0	-0.562206	0	0	0	-0	1.428364	-0
1.439	-2.776467	2.603928	0.15534	0	0	0	60.366474	218.289291	8.688447	0.548129	0	-0.562428	0	0	0	-0	1.452823	-0
1.44	-2.683167	2.595342	0.14032	0	0	0	58.713585	211.030777	7.980681	0.546473	0	-0.562652	0	0	0	-0	1.475664	-0
1.441	-2.592545	2.590409	0.124107	0	0	0	57.094856	203.959656	7.29105	0.544804	0	-0.56288	0	0	0	-0	1.496819	-0
1.442	-2.507326	2.588363	0.107848	0	0	0	55.510311	197.074524	6.621201	0.543135	0	-0.5631080000000001	0	0	0	-0	1.516223	-0
1.443	-2.429989	2.588507	0.092683	0	0	0	53.959934	190.373703	5.972632	0.54148	0	-0.563338	0	0	0	-0	1.53381	-0
1.444	-2.36273	2.590292	0.079716	0	0	0	52.443718	183.855225	5.346673	0.5398539999999999	0	-0.563568	0	0	0	-0	1.549518	-0
1.445	-2.307428	2.593366	0.06999	0	0	0	50.961655	177.516861	4.744448	0.5382710000000001	0	-0.563797	0	0	0	-0	1.563288	-0
1.446	-2.265618	2.597607	0.064455	0	0	0	49.513756	171.356049	4.166866	0.536745	0	-0.564026	0	0	0	-0	1.575063	-0
1.447	-2.238451	2.603113	0.063943	0	0	0	48.100014	165.369919	3.614603	0.535288	0	-0.564253	0	0	0	-0	1.58479	-0
1.448	-2.226669	2.610176	0.06915399999999999	0	0	0	46.720387	159.555298	3.088098	0.533914	0	-0.564479	0	0	0	-0	1.59242	-0
1.449	-2.230567	2.619215	0.080632	0	0	0	45.374767	153.908646	2.587548	0.532633	0	-0.564704	0	0	0	-0	1.597907	-0
1.45	-2.249973	2.630701	0.098758	0	0	0	44.062939	148.426117	2.112917	0.531454	0	-0.564929	0	0	0	-0	1.601209	-0
1.451	-2.28423	2.645063	0.123738	0	0	0	42.784554	143.10347	1.663946	0.530382	0	-0.565153	0	0	0	-0	1.602291	-0
1.452	-2.332187	2.662598	0.155604	0	0	0	41.539108	137.936172	1.240169	0.52942	0	-0.565378	0	0	0	-0	1.601118	-0
1.453	-2.392219	2.683391	0.194209	0	0	0	40.325912	132.919373	0.840935	0.52857	0	-0.565605	0	0	0	-0	1.597665	-0
1.454	-2.462248	2.707249	0.23924	0	0	0	39.144115	128.047943	0.465434	0.527829	0	-0.565836	0	0	0	-0	1.591909	-0
1.455	-2.539797	2.733673	0.290219	0	0	0	37.99268	123.316544	0.112727	0.527191	0	-0.566071	0	0	0	-0	1.583833	-0
1.456	-2.62206	2.761854	0.346525	0	0	0	36.870419	118.719688	-0.218225	0.5266459999999999	0	-0.566312	0	0	0	-0	1.573425	-0
1.457	-2.70599	2.790712	0.407399	0	0	0	35.776005	114.251831	-0.528524	0.526186	0	-0.566562	0	0	0	-0	1.560679	-0
1.458	-2.7884	2.818956	0.471973	0	0	0	34.708004	109.90741	-0.819306	0.525796	0	-0.566821	0	0	0	-0	1.545595	-0
1.459	-2.866081	2.845185	0.539284	0	0	0	33.664894	105.680992	-1.091704	0.525462	0	-0.567093	0	0	0	-0	1.528177	-0
1.46	-2.935913	2.867994	0.608299	0	0	0	32.645077	101.567322	-1.346818	0.525169	0	-0.567379	0	0	0	-0	1.508437	-0
1.461	-2.994987	2.886097	0.677937	0	0	0	31.646906	97.56141700000001	-1.585686	0.524902	0	-0.567683	0	0	0	-0	1.48639	-0
1.462	-3.040708	2.898437	0.747095	0	0	0	30.668688	93.658638	-1.809254	0.5246459999999999	0	-0.568007	0	0	0	-0	1.46206	-0
1.463	-3.070886	2.904281	0.81467	0	0	0	29.708677	89.854752	-2.01836	0.524388	0	-0.568353	0	0	0	-0	1.435474	-0
1.464	-3.083813	2.903291	0.8795809999999999	0	0	0	28.765078	86.146004	-2.213709	0.5241170000000001	0	-0.568727	0	0	0	-0	1.406667	-0
1.465	-3.078305	2.895546	0.940793	0	0	0	27.836037	82.529083	-2.395864	0.523826	0	-0.56913	0	0	0	-0	1.375679	-0
